<svg id="Layer_1" data-name="Layer 1" xmlns="http://www.w3.org/2000/svg" viewBox="0 0 323.58 491.13"><defs><style>.cls-1 { fill: rgb(226, 13, 121); }.cls-1, .cls-2 { fill-rule: evenodd; }.cls-2 { fill: rgb(11, 78, 152); }</style></defs><path class="cls-1" d="M242.31 32.75a60.93 60.93 0 1 1-60.93 60.93 60.93 60.93 0 0 1 60.93-60.93m-8-28.31a80.08 80.08 0 1 1-80.08 80.08 80.08 80.08 0 0 1 80.04-80.08z" transform="translate(-88.21 -4.44)"/><path class="cls-1" d="M266.17 340.94a33.54 33.54 0 1 1-37.07 29.61 33.54 33.54 0 0 1 37.07-29.61M262.12 323a47.4 47.4 0 1 1-52.37 41.85A47.4 47.4 0 0 1 262.12 323z" transform="translate(-88.21 -4.44)"/><path class="cls-2" d="M411.79 350.51c0 .27-.05.53-.08.8a162.24 162.24 0 1 1-145.18-179.44 143.48 143.48 0 1 0 145.26 178.64" transform="translate(-88.21 -4.44)"/><path class="cls-2" d="M319.12 262.49a89.35 89.35 0 1 1-81.58 155.79 88.38 88.38 0 0 0 81.58-155.79" transform="translate(-88.21 -4.44)"/></svg>
